# xmcd CD database file generated by Grip 3.2.0
# 
# Track frame offsets:
#       150
#       41004
#       73296
#       127471
#       179796
#       227645
# 
# Disc length: 3484 seconds
# 
# Revision: 3
# Processed by: cddbd v1.5.2PL0 Copyright (c) Steve Scherf et al.
# Submitted via: Grip 3.2.0
# 
DISCID=610d9a06
DTITLE=John Coltrane - Sax Impressions
DYEAR=1995
DGENRE=Jazz
TTITLE0=Blue Train
TTITLE1=Naima
TTITLE2=Spiritual
TTITLE3=Traneing In
TTITLE4=My Favourite Things
TTITLE5=Impressions
EXTD=
EXTT0=
EXTT1=
EXTT2=
EXTT3=
EXTT4=
EXTT5=
PLAYORDER=
